<svg width="122" height="122" viewBox="0 0 122 122" fill="none" xmlns="http://www.w3.org/2000/svg">
<path d="M97.1927 75.945L98.8194 79.2492C99.6327 80.8758 101.717 82.4008 103.445 82.7058L105.631 83.0617C112.29 84.18 113.815 89.06 109.088 93.8383L107.054 95.8717C105.682 97.2442 104.97 99.8875 105.377 101.819L105.631 103.039C107.461 111.071 103.191 114.172 96.2269 109.953L94.7527 109.038C92.9736 107.97 90.0252 107.97 88.2461 109.038L86.7719 109.953C79.7569 114.172 75.5377 111.071 77.3677 103.039L77.6219 101.819C78.0286 99.9383 77.3169 97.2442 75.9444 95.8717L73.9111 93.8383C69.1836 89.0092 70.7086 84.18 77.3677 83.0617L79.5536 82.7058C81.3327 82.4008 83.3661 80.8758 84.1794 79.2492L85.8061 75.945C88.9577 69.5908 94.0411 69.5908 97.1927 75.945Z" fill="#FF720D"/>
<path d="M82.299 10.1667H39.7007C21.1973 10.1667 10.1665 21.1975 10.1665 39.7008V82.2992C10.1665 100.802 21.1973 111.833 39.7007 111.833H66.5407C68.3198 111.833 69.5907 110.003 69.3873 108.224C69.184 106.292 69.2857 104.005 69.8957 101.362C69.9973 101.006 69.8957 100.599 69.5907 100.294L68.4723 99.1758C64.1515 94.8042 62.5757 89.5175 64.1007 84.6883C65.6765 79.91 70.0482 76.555 76.0973 75.5383L77.6223 75.2842L78.9948 72.5392C81.7907 66.8458 86.3657 63.5417 91.4998 63.5417C96.634 63.5417 101.209 66.8458 104.005 72.5392L104.767 74.115C105.123 74.8775 105.835 75.3858 106.648 75.5383C107.106 75.64 107.563 75.7417 108.021 75.8433C109.8 76.3008 111.833 74.8775 111.833 72.9967V39.7008C111.833 21.1975 100.802 10.1667 82.299 10.1667ZM82.6548 45.5467L70.9123 60.695C69.4382 62.5758 67.354 63.7958 64.9648 64.05C62.6265 64.355 60.2373 63.6942 58.4073 62.22L49.1048 55.0017C48.749 54.6967 48.3423 54.6967 48.139 54.7475C47.9357 54.7475 47.5798 54.8492 47.2748 55.2558L35.1765 70.9633C34.414 71.9292 33.2957 72.4375 32.1265 72.4375C31.3132 72.4375 30.4998 72.1833 29.7882 71.6242C28.1107 70.3533 27.8057 67.9642 29.0765 66.2867L41.1748 50.5792C42.649 48.6983 44.7332 47.4783 47.1223 47.1733C49.5115 46.8683 51.8498 47.5292 53.7307 49.0033L63.0332 56.3233C63.389 56.6283 63.7448 56.5775 63.999 56.5775C64.2023 56.5775 64.5582 56.4758 64.8632 56.0692L76.6057 40.9208C77.8765 39.2433 80.2657 38.9383 81.9432 40.26C83.6715 41.5308 83.9257 43.92 82.6548 45.5467Z" fill="#8201FB"/>
</svg>
